<?xml version="1.0" encoding="UTF-8" standalone="no"?><!DOCTYPE svg PUBLIC "-//W3C//DTD SVG 1.1//EN" "http://www.w3.org/Graphics/SVG/1.1/DTD/svg11.dtd"><svg width="100%" height="100%" viewBox="0 0 1500 1050" version="1.1" xmlns="http://www.w3.org/2000/svg" xmlns:xlink="http://www.w3.org/1999/xlink" xml:space="preserve" xmlns:serif="http://www.serif.com/" style="fill-rule:evenodd;clip-rule:evenodd;stroke-linejoin:round;stroke-miterlimit:2;"><g transform="matrix(4.16667,0,0,4.16667,0,0)"><g transform="matrix(1.26595,0,0,1,-18.7326,0)"><text x="70.437px" y="109.818px" style="font-family:'SinhalaMN', 'Sinhala MN';font-size:35px;fill:#10758f;">AL<tspan x="110.474px 130.113px " y="109.818px 109.818px ">TA</tspan>DENA</text></g><g transform="matrix(1.14802,0,0,1,-9.95292,0)"><text x="67.239px" y="145.537px" style="font-family:'SinhalaMN', 'Sinhala MN';font-size:35px;fill:#073440;">E<tspan x="87.351px " y="145.537px ">Y</tspan></text></g><g transform="matrix(1.14802,0,0,1,-17.0499,0)"><text x="115.183px" y="145.537px" style="font-family:'SinhalaMN', 'Sinhala MN';font-size:35px;fill:#073440;">E</text></g><g transform="matrix(1.14802,0,0,1,-21.3098,0)"><text x="143.962px" y="145.758px" style="font-family:'SinhalaMN', 'Sinhala MN';font-size:35px;fill:#073440;">C<tspan x="171.354px 193.909px 215.644px " y="145.758px 145.758px 145.758px ">ARE</tspan></text></g></g><path d="M1222.88,495.417c-19.292,-9.971 -41.983,-15.192 -65.154,-14.988c-32.954,0.288 -64.267,11.509 -86.154,30.871l8.696,6.012c19.695,-17.425 47.879,-27.525 77.537,-27.783c20.854,-0.183 41.275,4.517 58.638,13.492l6.437,-7.604Z" style="fill:#073440;"/><path d="M1137.88,501.879c31.479,0 56.996,23.509 56.996,52.504c-0,28.98 -25.538,52.505 -56.996,52.505c-31.475,-0 -56.992,-23.509 -56.992,-52.505l9.696,0c0,24.067 21.175,43.575 47.296,43.575c26.108,0 47.3,-19.525 47.3,-43.575c0,-24.066 -21.175,-43.575 -47.3,-43.575l0,-8.929Z" style="fill:#10758f;"/></svg>